<?xml version="1.0" encoding="UTF-8" standalone="no"?>
<!-- Created with Inkscape (http://www.inkscape.org/) -->

<svg
   width="210mm"
   height="297mm"
   viewBox="0 0 210 297"
   version="1.1"
   id="svg5"
   inkscape:version="1.1.2 (b8e25be833, 2022-02-05)"
   sodipodi:docname="iconos label.svg"
   inkscape:export-filename="C:\Users\Leo\Pictures\lblNotify\lbnWrng.png"
   inkscape:export-xdpi="96"
   inkscape:export-ydpi="96"
   xmlns:inkscape="http://www.inkscape.org/namespaces/inkscape"
   xmlns:sodipodi="http://sodipodi.sourceforge.net/DTD/sodipodi-0.dtd"
   xmlns="http://www.w3.org/2000/svg"
   xmlns:svg="http://www.w3.org/2000/svg">
  <sodipodi:namedview
     id="namedview7"
     pagecolor="#505050"
     bordercolor="#ffffff"
     borderopacity="1"
     inkscape:pageshadow="0"
     inkscape:pageopacity="0"
     inkscape:pagecheckerboard="1"
     inkscape:document-units="mm"
     showgrid="false"
     showguides="true"
     inkscape:guide-bbox="true"
     inkscape:zoom="1.2311617"
     inkscape:cx="149.04623"
     inkscape:cy="248.54575"
     inkscape:window-width="1920"
     inkscape:window-height="1017"
     inkscape:window-x="-8"
     inkscape:window-y="-8"
     inkscape:window-maximized="1"
     inkscape:current-layer="layer1">
    <sodipodi:guide
       position="64.80287,84.136892"
       orientation="0,-1"
       id="guide249" />
  </sodipodi:namedview>
  <defs
     id="defs2" />
  <g
     inkscape:label="Capa 1"
     inkscape:groupmode="layer"
     id="layer1">
    <g
       id="g4208"
       transform="translate(41.96113,-184.71828)">
      <path
         id="path405"
         style="fill:#ffc61a;fill-opacity:1;stroke-width:0.264583"
         d="m 20.081914,186.23087 a 3.5380866,3.5380866 0 0 0 -3.300574,2.26498 L 0.70531956,220.7254 a 3.5380866,3.5380866 0 0 0 -0.567925,1.91772 3.5380866,3.5380866 0 0 0 3.40237704,3.53312 l 0.01085,0.0186 32.9085854,-0.005 c 0.0013,-7.4e-4 0.0059,-0.008 0.0072,-0.009 a 3.5380866,3.5380866 0 0 0 0.0217,0.001 3.5380866,3.5380866 0 0 0 3.537771,-3.53828 3.5380866,3.5380866 0 0 0 -0.557589,-1.90686 L 23.457417,188.70979 a 3.5380866,3.5380866 0 0 0 -3.375503,-2.47892 z" />
      <g
         id="g4202"
         transform="translate(-30.490773,-0.72937743)">
        <circle
           style="fill:#000000;fill-opacity:1;stroke:none;stroke-width:0.217478"
           id="path3541"
           cx="50.572411"
           cy="218.00919"
           r="2.200016" />
        <rect
           style="fill:#000000;fill-opacity:1;stroke:none;stroke-width:0.282525"
           id="rect3759"
           width="4.4000001"
           height="14.954513"
           x="48.37241"
           y="197.9086"
           ry="2.2" />
      </g>
    </g>
    <g
       id="g35642"
       transform="translate(-49.301283,-97.494672)">
      <circle
         style="fill:#d75a4a;fill-opacity:1;stroke:none;stroke-width:0.392094"
         id="path4232"
         cx="157.6693"
         cy="119.98636"
         r="20" />
      <path
         id="rect10773"
         style="fill:#ffffff;fill-opacity:1;stroke:none;stroke-width:0.397039"
         d="m 168.11118,130.42826 c 0.86183,-0.86182 0.86183,-2.24926 0,-3.11109 l -7.3308,-7.3308 7.33081,-7.33081 c 0.86182,-0.86182 0.86181,-2.24926 -1e-5,-3.11108 -0.86181,-0.86181 -2.24925,-0.86182 -3.11107,0 l -7.33081,7.33081 -7.33081,-7.33081 c -0.86182,-0.86182 -2.24927,-0.86182 -3.11109,0 -0.86182,0.86182 -0.86181,2.24926 1e-5,3.11108 l 7.33081,7.33081 -7.33081,7.33081 c -0.86182,0.86182 -0.86181,2.24926 0,3.11106 0.86182,0.86183 2.24926,0.86184 3.11108,2e-5 l 7.33081,-7.33081 7.33081,7.3308 c 0.86182,0.86182 2.24925,0.86183 3.11107,1e-5 z" />
    </g>
    <g
       id="g21017"
       transform="translate(59.198416,-251.77919)">
      <circle
         style="fill:#72a7cf;fill-opacity:1;stroke:none;stroke-width:0.392094"
         id="circle11013"
         cx="96.613045"
         cy="275.91547"
         r="20" />
      <g
         id="g21011"
         transform="translate(-39.939447,25.094697)">
        <circle
           style="fill:#ffffff;fill-opacity:1;stroke:none;stroke-width:0.217478"
           id="circle20082"
           cx="136.55249"
           cy="-241.87047"
           r="2.200016"
           transform="scale(1,-1)" />
        <rect
           style="fill:#ffffff;fill-opacity:1;stroke:none;stroke-width:0.282525"
           id="rect20084"
           width="4.4000001"
           height="14.954513"
           x="134.35249"
           y="-261.97107"
           ry="2.2"
           transform="scale(1,-1)" />
      </g>
    </g>
    <g
       id="g32076"
       transform="translate(116.63392,-224.0907)">
      <circle
         style="fill:#72a7cf;fill-opacity:1;stroke:none;stroke-width:0.392094"
         id="circle32070"
         cx="81.978737"
         cy="247.38956"
         r="20" />
      <g
         aria-label="?"
         id="g32074"
         style="font-size:50.8px;line-height:1.25;fill:#ffffff;stroke-width:0.264583"
         transform="matrix(0.70368081,0,0,0.70368081,25.847638,73.05955)">
        <path
           d="m 88.734735,238.41361 q 0,3.67109 -3.472656,6.82129 -1.066602,0.89297 -2.133203,1.81074 -1.463477,1.33946 -2.38125,2.95176 -0.42168,0.76895 -1.016993,3.96875 -0.496093,2.72852 -2.530078,2.72852 -2.282031,0 -2.282031,-2.97657 0,-2.45566 1.289844,-5.06015 1.314648,-2.6045 3.323828,-4.192 2.480469,-1.95957 3.199805,-2.80292 1.215429,-1.43868 1.215429,-3.19981 0,-1.86035 -1.488281,-3.07578 -1.463477,-1.24023 -3.844727,-1.24023 -1.587499,0 -3.398242,1.28984 -1.810742,1.26504 -2.480468,1.26504 -0.79375,0 -1.364258,-0.64492 -0.570508,-0.66973 -0.570508,-1.61231 0,-1.6123 2.257227,-2.90215 2.430859,-1.41386 5.903515,-1.41386 4.489648,0 7.118945,2.25722 2.654102,2.25723 2.654102,6.02754 z m -7.56543,23.68848 q 0,1.41386 -0.967383,2.33164 -0.942578,0.91777 -2.505273,0.91777 -1.513086,0 -2.455664,-0.89297 -0.942578,-0.89297 -0.942578,-2.30683 0,-1.46348 0.992187,-2.40606 0.992188,-0.96738 2.505274,-0.96738 1.488281,0 2.430859,0.94258 0.942578,0.91777 0.942578,2.38125 z"
           style="font-family:'Kristen ITC';-inkscape-font-specification:'Kristen ITC'"
           id="path32072" />
      </g>
    </g>
    <g
       id="g36310"
       transform="translate(-60.921367,-226.79006)">
      <circle
         style="fill:#6bbe66;fill-opacity:1;stroke:none;stroke-width:0.392094"
         id="path4232-1"
         cx="81.97036"
         cy="248.37744"
         r="20" />
      <path
         id="rect35766"
         style="fill:#ffffff;fill-opacity:1;stroke:none;stroke-width:0.244311"
         d="m 94.779363,237.59204 c -0.484809,0.0111 -0.969531,0.18495 -1.36684,0.52813 l -18.308444,15.81402 -4.350121,-5.05705 c -0.782571,-0.90973 -2.144866,-1.01202 -3.054596,-0.22945 -0.909727,0.78257 -1.012013,2.14487 -0.229441,3.0546 l 5.679755,6.60269 c 0.02736,0.0359 0.05586,0.0713 0.08578,0.10594 0.367696,0.42569 0.862274,0.67379 1.377693,0.73639 5.11e-4,6e-5 10e-4,-6e-5 0.0016,0 0.03385,0.004 0.0678,0.008 0.101803,0.0103 5.14e-4,4e-5 0.001,-3e-5 0.0016,0 0.034,0.002 0.06823,0.004 0.102319,0.005 5.14e-4,2e-5 0.001,-10e-6 0.0016,0 0.519017,0.0141 1.044792,-0.1582 1.471226,-0.52503 0.03425,-0.0295 0.06726,-0.0599 0.09922,-0.091 L 96.24439,241.39904 c 0.908137,-0.78442 1.008176,-2.14749 0.223761,-3.05563 -0.441235,-0.51083 -1.065462,-0.76563 -1.688788,-0.75137 z" />
    </g>
    <g
       id="g36434"
       transform="matrix(0.29848841,0,0,0.29848841,29.286649,26.611681)">
      <path
         id="path36426"
         style="fill:#ffc61a;fill-opacity:1;stroke-width:0.264583"
         d="m 20.081914,186.23087 a 3.5380866,3.5380866 0 0 0 -3.300574,2.26498 L 0.70531956,220.7254 a 3.5380866,3.5380866 0 0 0 -0.567925,1.91772 3.5380866,3.5380866 0 0 0 3.40237704,3.53312 l 0.01085,0.0186 32.9085854,-0.005 c 0.0013,-7.4e-4 0.0059,-0.008 0.0072,-0.009 a 3.5380866,3.5380866 0 0 0 0.0217,0.001 3.5380866,3.5380866 0 0 0 3.537771,-3.53828 3.5380866,3.5380866 0 0 0 -0.557589,-1.90686 L 23.457417,188.70979 a 3.5380866,3.5380866 0 0 0 -3.375503,-2.47892 z" />
      <g
         id="g36432"
         transform="translate(-30.490773,-0.72937743)">
        <circle
           style="fill:#000000;fill-opacity:1;stroke:none;stroke-width:0.217478"
           id="circle36428"
           cx="50.572411"
           cy="218.00919"
           r="2.200016" />
        <rect
           style="fill:#000000;fill-opacity:1;stroke:none;stroke-width:0.282525"
           id="rect36430"
           width="4.4000001"
           height="14.954513"
           x="48.37241"
           y="197.9086"
           ry="2.2" />
      </g>
    </g>
    <g
       id="g36440"
       transform="matrix(0.29765625,0,0,0.29765625,3.567033,52.449138)"
       inkscape:export-filename="C:\Users\Leo\Pictures\lblNotify\lbnError.png"
       inkscape:export-xdpi="96"
       inkscape:export-ydpi="96">
      <circle
         style="fill:#d75a4a;fill-opacity:1;stroke:none;stroke-width:0.392094"
         id="circle36436"
         cx="157.6693"
         cy="119.98636"
         r="20" />
      <path
         id="path36438"
         style="fill:#ffffff;fill-opacity:1;stroke:none;stroke-width:0.397039"
         d="m 168.11118,130.42826 c 0.86183,-0.86182 0.86183,-2.24926 0,-3.11109 l -7.3308,-7.3308 7.33081,-7.33081 c 0.86182,-0.86182 0.86181,-2.24926 -1e-5,-3.11108 -0.86181,-0.86181 -2.24925,-0.86182 -3.11107,0 l -7.33081,7.33081 -7.33081,-7.33081 c -0.86182,-0.86182 -2.24927,-0.86182 -3.11109,0 -0.86182,0.86182 -0.86181,2.24926 1e-5,3.11108 l 7.33081,7.33081 -7.33081,7.33081 c -0.86182,0.86182 -0.86181,2.24926 0,3.11106 0.86182,0.86183 2.24926,0.86184 3.11108,2e-5 l 7.33081,-7.33081 7.33081,7.3308 c 0.86182,0.86182 2.24925,0.86183 3.11107,1e-5 z" />
    </g>
    <g
       id="g36450"
       transform="matrix(0.29765625,0,0,0.29765625,36.958312,6.0358648)"
       inkscape:export-filename="C:\Users\Leo\Pictures\lblNotify\lbnInfo.png"
       inkscape:export-xdpi="96"
       inkscape:export-ydpi="96">
      <circle
         style="fill:#72a7cf;fill-opacity:1;stroke:none;stroke-width:0.392094"
         id="circle36442"
         cx="96.613045"
         cy="275.91547"
         r="20" />
      <g
         id="g36448"
         transform="translate(-39.939447,25.094697)">
        <circle
           style="fill:#ffffff;fill-opacity:1;stroke:none;stroke-width:0.217478"
           id="circle36444"
           cx="136.55249"
           cy="-241.87047"
           r="2.200016"
           transform="scale(1,-1)" />
        <rect
           style="fill:#ffffff;fill-opacity:1;stroke:none;stroke-width:0.282525"
           id="rect36446"
           width="4.4000001"
           height="14.954513"
           x="134.35249"
           y="-261.97107"
           ry="2.2"
           transform="scale(1,-1)" />
      </g>
    </g>
    <g
       id="g36458"
       transform="matrix(0.29765625,0,0,0.29765625,56.531809,14.52678)"
       inkscape:export-filename="C:\Users\Leo\Pictures\lblNotify\lbnAskQ.png"
       inkscape:export-xdpi="96"
       inkscape:export-ydpi="96">
      <circle
         style="fill:#72a7cf;fill-opacity:1;stroke:none;stroke-width:0.392094"
         id="circle36452"
         cx="81.978737"
         cy="247.38956"
         r="20" />
      <g
         aria-label="?"
         id="g36456"
         style="font-size:50.8px;line-height:1.25;fill:#ffffff;stroke-width:0.264583"
         transform="matrix(0.70368081,0,0,0.70368081,25.847638,73.05955)">
        <path
           d="m 88.734735,238.41361 q 0,3.67109 -3.472656,6.82129 -1.066602,0.89297 -2.133203,1.81074 -1.463477,1.33946 -2.38125,2.95176 -0.42168,0.76895 -1.016993,3.96875 -0.496093,2.72852 -2.530078,2.72852 -2.282031,0 -2.282031,-2.97657 0,-2.45566 1.289844,-5.06015 1.314648,-2.6045 3.323828,-4.192 2.480469,-1.95957 3.199805,-2.80292 1.215429,-1.43868 1.215429,-3.19981 0,-1.86035 -1.488281,-3.07578 -1.463477,-1.24023 -3.844727,-1.24023 -1.587499,0 -3.398242,1.28984 -1.810742,1.26504 -2.480468,1.26504 -0.79375,0 -1.364258,-0.64492 -0.570508,-0.66973 -0.570508,-1.61231 0,-1.6123 2.257227,-2.90215 2.430859,-1.41386 5.903515,-1.41386 4.489648,0 7.118945,2.25722 2.654102,2.25723 2.654102,6.02754 z m -7.56543,23.68848 q 0,1.41386 -0.967383,2.33164 -0.942578,0.91777 -2.505273,0.91777 -1.513086,0 -2.455664,-0.89297 -0.942578,-0.89297 -0.942578,-2.30683 0,-1.46348 0.992187,-2.40606 0.992188,-0.96738 2.505274,-0.96738 1.488281,0 2.430859,0.94258 0.942578,0.91777 0.942578,2.38125 z"
           style="font-family:'Kristen ITC';-inkscape-font-specification:'Kristen ITC'"
           id="path36454" />
      </g>
    </g>
    <g
       id="g36464"
       transform="matrix(0.29765625,0,0,0.29765625,-4.3357117,14.23273)"
       inkscape:export-filename="C:\Users\Leo\Pictures\lblNotify\lbnDone.png"
       inkscape:export-xdpi="96"
       inkscape:export-ydpi="96">
      <circle
         style="fill:#6bbe66;fill-opacity:1;stroke:none;stroke-width:0.392094"
         id="circle36460"
         cx="81.97036"
         cy="248.37744"
         r="20" />
      <path
         id="path36462"
         style="fill:#ffffff;fill-opacity:1;stroke:none;stroke-width:0.244311"
         d="m 94.779363,237.59204 c -0.484809,0.0111 -0.969531,0.18495 -1.36684,0.52813 l -18.308444,15.81402 -4.350121,-5.05705 c -0.782571,-0.90973 -2.144866,-1.01202 -3.054596,-0.22945 -0.909727,0.78257 -1.012013,2.14487 -0.229441,3.0546 l 5.679755,6.60269 c 0.02736,0.0359 0.05586,0.0713 0.08578,0.10594 0.367696,0.42569 0.862274,0.67379 1.377693,0.73639 5.11e-4,6e-5 10e-4,-6e-5 0.0016,0 0.03385,0.004 0.0678,0.008 0.101803,0.0103 5.14e-4,4e-5 0.001,-3e-5 0.0016,0 0.034,0.002 0.06823,0.004 0.102319,0.005 5.14e-4,2e-5 0.001,-10e-6 0.0016,0 0.519017,0.0141 1.044792,-0.1582 1.471226,-0.52503 0.03425,-0.0295 0.06726,-0.0599 0.09922,-0.091 L 96.24439,241.39904 c 0.908137,-0.78442 1.008176,-2.14749 0.223761,-3.05563 -0.441235,-0.51083 -1.065462,-0.76563 -1.688788,-0.75137 z" />
    </g>
  </g>
</svg>
