<?xml version="1.0" encoding="UTF-8" standalone="no"?>
<!-- Created with Inkscape (http://www.inkscape.org/) -->

<svg
   width="256"
   height="256"
   viewBox="0 0 67.733332 67.733335"
   version="1.1"
   id="svg5"
   inkscape:version="1.1.2 (b8e25be833, 2022-02-05)"
   sodipodi:docname="icons.svg"
   inkscape:export-filename="C:\Users\LeonardoGutierrezV\assets\images\db_icon.png"
   inkscape:export-xdpi="96"
   inkscape:export-ydpi="96"
   xmlns:inkscape="http://www.inkscape.org/namespaces/inkscape"
   xmlns:sodipodi="http://sodipodi.sourceforge.net/DTD/sodipodi-0.dtd"
   xmlns="http://www.w3.org/2000/svg"
   xmlns:svg="http://www.w3.org/2000/svg">
  <sodipodi:namedview
     id="namedview7"
     pagecolor="#505050"
     bordercolor="#ffffff"
     borderopacity="1"
     inkscape:pageshadow="0"
     inkscape:pageopacity="0"
     inkscape:pagecheckerboard="1"
     inkscape:document-units="px"
     showgrid="false"
     units="px"
     inkscape:zoom="1.9795355"
     inkscape:cx="49.506564"
     inkscape:cy="48.496226"
     inkscape:window-width="1920"
     inkscape:window-height="1017"
     inkscape:window-x="-8"
     inkscape:window-y="-8"
     inkscape:window-maximized="1"
     inkscape:current-layer="layer2"
     showguides="true"
     inkscape:guide-bbox="true">
    <sodipodi:guide
       position="67.230628,67.065038"
       orientation="0,-1"
       id="guide28557" />
  </sodipodi:namedview>
  <defs
     id="defs2" />
  <g
     inkscape:label="Base"
     inkscape:groupmode="layer"
     id="layer1"
     sodipodi:insensitive="true">
    <circle
       style="fill:#00112b;stroke:none;stroke-width:1.47818;stroke-miterlimit:4;stroke-dasharray:none"
       id="path1908"
       cx="33.866669"
       cy="33.866665"
       r="33.072918" />
  </g>
  <g
     inkscape:groupmode="layer"
     id="layer2"
     inkscape:label="icon">
    <path
       style="fill:#000000;fill-opacity:0;stroke:#66ff00;stroke-width:2.25037;stroke-linecap:round;stroke-linejoin:miter;stroke-miterlimit:4;stroke-dasharray:none;stroke-opacity:1"
       d="m -21.044167,-13.473899 6.206944,4.8143183 -10.648357,7.485479 -0.01676,-26.8599983 c 2.712332,-0.687326 5.321383,-0.548407 7.880677,-0.01143 v 4.305144 c 1.349023,0.310401 2.680234,0.692053 3.877926,1.607781 l 3.036676,-3.037115 c 2.1810864,1.293013 4.0127574,3.197502 5.5802044,5.564382 l -3.045026,3.044587 c 0.820943,1.292642 1.400111,2.585284 1.607781,3.877926 h 4.293277 c 0.395073,2.626893 0.218844,5.2537853 0.01187,7.8806773 h -4.316133 c -0.295542,1.102738 -0.556634,2.177914 -1.597672,3.87704799 l 3.037555,3.03755401 C -6.5624906,4.570974 -8.5066896,6.305818 -10.699148,7.693098 l -3.045466,-3.046345 c -1.144324,0.902618 -2.425845,1.462246 -3.877046,1.597673 v 4.304705 c -2.748214,0.363965 -5.436722,0.548814 -7.880677,0 V 6.243986 C -26.889345,5.9006 -28.144259,5.293027 -29.379823,4.646753 l -3.037556,3.037556 c -2.503417,-1.211163 -4.132162,-3.296988 -5.571864,-5.5718557 l 3.037556,-3.03755401 C -35.816496,-2.0180987 -36.449156,-3.2503867 -36.54936,-4.8021487 h -4.304265 c -0.65968,-2.626891 -0.721053,-5.2537823 0,-7.8806733 h 4.304265 c 0.124634,-1.373934 0.706306,-2.65646 1.597673,-3.877047 l -3.037556,-3.037996 c 1.306263,-1.778566 2.214336,-3.500249 5.571855,-5.571853 l 3.037556,3.037554"
       id="path1372"
       sodipodi:nodetypes="cccccccccccccccccccccccccccccccccc" />
    <g
       id="g22105"
       transform="translate(-2.6782084,14.994134)">
      <ellipse
         style="fill:#000000;fill-opacity:0;stroke:#5599ff;stroke-width:2.37067;stroke-linecap:round;stroke-miterlimit:4;stroke-dasharray:none"
         id="path9535"
         cx="30.262888"
         cy="-40.179527"
         rx="19.981834"
         ry="19.981833" />
      <path
         id="path9855"
         style="fill:none;stroke:#5599ff;stroke-width:2.40982;stroke-linecap:butt;stroke-linejoin:miter;stroke-miterlimit:4;stroke-dasharray:none;stroke-opacity:1"
         d="m 30.217247,-59.257463 c 0,0 -28.893729,16.040845 0,37.642404 v -0.01512 z" />
      <path
         id="path9857"
         style="fill:none;stroke:#5599ff;stroke-width:2.34058;stroke-linecap:butt;stroke-linejoin:miter;stroke-miterlimit:4;stroke-dasharray:none;stroke-opacity:1"
         d="m 30.247998,-59.30404 v 37.734663 c 26.14949,-21.6566 0,-37.734663 0,-37.734663 z"
         sodipodi:nodetypes="ccc" />
      <path
         style="fill:none;stroke:#5599ff;stroke-width:2.37067;stroke-linecap:butt;stroke-linejoin:miter;stroke-miterlimit:4;stroke-dasharray:none;stroke-opacity:1"
         d="M 13.107866,-51.298686 H 46.767572"
         id="path10510" />
      <path
         style="fill:none;stroke:#5599ff;stroke-width:2.37067;stroke-linecap:butt;stroke-linejoin:miter;stroke-miterlimit:4;stroke-dasharray:none;stroke-opacity:1"
         d="M 13.593343,-28.48129 H 46.443921"
         id="path10512" />
      <ellipse
         style="fill:#000000;fill-opacity:0;stroke:#5599ff;stroke-width:2.37067;stroke-linecap:round;stroke-miterlimit:4;stroke-dasharray:none"
         id="ellipse10612"
         cx="30.262888"
         cy="-40.179527"
         rx="19.981834"
         ry="19.981833" />
      <rect
         style="fill:#00112b;fill-opacity:1;stroke:none;stroke-width:2.20034;stroke-linecap:round;stroke-miterlimit:4;stroke-dasharray:none"
         id="rect11043"
         width="46.308002"
         height="15.747736"
         x="7.1088867"
         y="-48.053394"
         ry="0.72100127" />
      <text
         xml:space="preserve"
         style="font-style:normal;font-weight:normal;font-size:16.9333px;line-height:1.25;font-family:sans-serif;fill:#5599ff;fill-opacity:1;stroke:none;stroke-width:0.264583"
         x="9.4766006"
         y="-35.561729"
         id="text17365"><tspan
           sodipodi:role="line"
           id="tspan17363"
           style="font-size:16.9333px;fill:#5599ff;fill-opacity:1;stroke-width:0.264583"
           x="9.4766006"
           y="-35.561729">www</tspan></text>
    </g>
    <g
       id="g10491"
       transform="matrix(0.57777779,0,0,0.57777779,-18.659408,-1.7899144)"
       style="fill:#00adef;fill-opacity:1">
      <path
         style="fill:#00adef;fill-opacity:1;stroke:none;stroke-width:0.264583px;stroke-linecap:butt;stroke-linejoin:miter;stroke-opacity:1"
         d="m -53.359764,40.938513 24.34477,-3.493585 v 23.566051 h -24.34477 z"
         id="path10483" />
      <path
         style="fill:#00adef;fill-opacity:1;stroke:none;stroke-width:0.264583px;stroke-linecap:butt;stroke-linejoin:miter;stroke-opacity:1"
         d="M -26.034,37.017142 V 61.010979 H 6.1607175 L 6.1429402,32.641688 Z"
         id="path10485" />
      <path
         style="fill:#00adef;fill-opacity:1;stroke:none;stroke-width:0.264583px;stroke-linecap:butt;stroke-linejoin:miter;stroke-opacity:1"
         d="M -26.034,63.693873 V 87.531479 L 6.1429404,92.172937 6.1607178,63.693873 Z"
         id="path10487" />
      <path
         style="fill:#00adef;fill-opacity:1;stroke:none;stroke-width:0.264583px;stroke-linecap:butt;stroke-linejoin:miter;stroke-opacity:1"
         d="m -29.014994,63.693873 v 23.421403 l -24.34477,-3.398983 v -20.02242 z"
         id="path10489" />
    </g>
    <path
       style="fill:#ffff00;stroke-width:0.187561"
       d="m 28.932812,54.789936 c -7.049972,-0.741653 -12.06731,-3.096598 -12.696667,-5.959322 -0.251802,-1.145375 -0.258612,-28.681572 -0.0074,-29.818522 0.754416,-3.413998 6.238496,-5.701732 14.920986,-6.224424 8.66851,-0.52185 16.962971,1.330388 19.59105,4.374879 0.991035,1.148066 0.947132,0.374953 0.947132,16.680241 0,17.093942 0.111274,15.813022 -1.497495,17.237781 -3.342476,2.960173 -12.759356,4.60338 -21.257632,3.709367 z m 11.903186,-2.486752 c 4.300733,-0.704486 7.611035,-2.009036 8.759253,-3.451921 0.410894,-0.516338 0.419513,-0.592645 0.419513,-3.713048 0,-2.468928 -0.04703,-3.160392 -0.20914,-3.072633 -2.156243,1.167506 -2.898493,1.500878 -4.338628,1.948648 -2.775282,0.862895 -5.949044,1.340562 -9.841501,1.4812 -6.795508,0.245523 -13.05424,-0.843106 -16.541353,-2.877161 -0.585489,-0.341518 -1.093713,-0.62094 -1.129392,-0.62094 -0.03567,0 -0.06487,1.459639 -0.06487,3.243644 v 3.243643 l 0.627441,0.650594 c 1.628036,1.688116 6.73416,3.204664 12.339638,3.664934 2.146074,0.176224 7.495866,-0.0902 9.979041,-0.49696 z M 39.72476,43.032817 c 4.512554,-0.567318 8.466206,-2.006879 9.794693,-3.566342 l 0.495311,-0.581428 v -3.174596 c 0,-1.746026 -0.0273,-3.174595 -0.06048,-3.174595 -0.03326,0 -0.541514,0.270589 -1.12939,0.601309 -3.537816,1.990245 -8.132503,2.870015 -14.9562,2.863749 -7.279448,-0.0067 -11.332945,-0.878472 -15.769639,-3.39158 -0.162351,-0.09196 -0.209147,0.607478 -0.209147,3.126329 0,3.099427 0.01689,3.263754 0.376468,3.667943 1.794138,2.01663 6.196524,3.34949 13.008903,3.938559 1.378626,0.119208 6.545277,-0.06995 8.44952,-0.309348 z m -2.426101,-9.231641 c 5.838566,-0.435138 10.805909,-1.999623 12.296592,-3.872857 0.410894,-0.51634 0.419513,-0.592647 0.419513,-3.71305 0,-2.469814 -0.04695,-3.160051 -0.20914,-3.07097 -2.669077,1.466401 -4.17188,2.027153 -7.077694,2.640961 -8.075846,1.705899 -18.754563,0.761978 -23.643788,-2.089937 -0.585489,-0.341517 -1.095623,-0.620941 -1.133642,-0.620941 -0.03801,0 -0.04838,1.485518 -0.02302,3.30115 l 0.0461,3.301148 0.705692,0.676048 c 2.626526,2.516192 10.804796,4.030863 18.619444,3.448448 z m 2.928056,-9.779025 c 4.18478,-0.595024 7.157416,-1.628315 8.898476,-3.093111 0.900475,-0.757592 1.044145,-1.299052 0.528908,-1.99333 -1.078324,-1.453026 -4.247964,-2.748977 -8.758115,-3.580878 -2.865874,-0.528611 -11.212765,-0.525255 -13.970978,0.0056 -4.365532,0.840232 -7.120368,1.902545 -8.342378,3.216971 -0.381016,0.409827 -0.692753,0.920108 -0.692753,1.133958 0,1.049609 2.497267,2.580896 5.685245,3.486108 1.635182,0.464301 5.130705,1.037144 7.449155,1.220759 1.803337,0.14282 6.979041,-0.07995 9.20244,-0.396094 z"
       id="path1345" />
  </g>
</svg>
