<?xml version="1.0" encoding="UTF-8" standalone="no"?>
<!-- Created with Inkscape (http://www.inkscape.org/) -->

<svg
   width="256"
   height="256"
   viewBox="0 0 67.733332 67.733335"
   version="1.1"
   id="svg5"
   inkscape:version="1.1.2 (b8e25be833, 2022-02-05)"
   sodipodi:docname="icons.svg"
   inkscape:export-filename="C:\Users\posts\LeonardoGutierrezV\assets\images\win_icon.png"
   inkscape:export-xdpi="96"
   inkscape:export-ydpi="96"
   xmlns:inkscape="http://www.inkscape.org/namespaces/inkscape"
   xmlns:sodipodi="http://sodipodi.sourceforge.net/DTD/sodipodi-0.dtd"
   xmlns="http://www.w3.org/2000/svg"
   xmlns:svg="http://www.w3.org/2000/svg">
  <sodipodi:namedview
     id="namedview7"
     pagecolor="#505050"
     bordercolor="#ffffff"
     borderopacity="1"
     inkscape:pageshadow="0"
     inkscape:pageopacity="0"
     inkscape:pagecheckerboard="1"
     inkscape:document-units="px"
     showgrid="false"
     units="px"
     inkscape:zoom="1.9795355"
     inkscape:cx="179.335"
     inkscape:cy="48.496226"
     inkscape:window-width="1920"
     inkscape:window-height="1017"
     inkscape:window-x="-8"
     inkscape:window-y="-8"
     inkscape:window-maximized="1"
     inkscape:current-layer="layer2"
     showguides="true"
     inkscape:guide-bbox="true">
    <sodipodi:guide
       position="67.230628,67.065038"
       orientation="0,-1"
       id="guide28557" />
  </sodipodi:namedview>
  <defs
     id="defs2" />
  <g
     inkscape:label="Base"
     inkscape:groupmode="layer"
     id="layer1"
     sodipodi:insensitive="true">
    <circle
       style="fill:#00112b;stroke:none;stroke-width:1.47818;stroke-miterlimit:4;stroke-dasharray:none"
       id="path1908"
       cx="33.866669"
       cy="33.866665"
       r="33.072918" />
  </g>
  <g
     inkscape:groupmode="layer"
     id="layer2"
     inkscape:label="icon">
    <path
       id="circle36365"
       style="fill:#00adef;fill-opacity:1;stroke:none;stroke-width:0.666832;stroke-linecap:round;stroke-opacity:1"
       d="m -42.853579,19.444998 a 20.436374,20.436374 0 0 1 1.487248,0.05529 20.436374,20.436374 0 0 0 -1.487248,-0.05529 z m -1.493449,0.05633 a 20.436374,20.436374 0 0 0 -0.60048,0.0646 20.436374,20.436374 0 0 1 0.60048,-0.0646 z m 3.009636,5.16e-4 a 20.436374,20.436374 0 0 1 1.459859,0.162264 20.436374,20.436374 0 0 0 -1.459859,-0.162264 z m -4.493783,0.163814 a 20.436374,20.436374 0 0 0 -0.730705,0.132808 20.436374,20.436374 0 0 1 0.730705,-0.132808 z m 5.999117,0.0052 a 20.436374,20.436374 0 0 1 1.428336,0.266133 20.436374,20.436374 0 0 0 -1.428336,-0.266133 z m -7.461043,0.266133 a 20.436374,20.436374 0 0 0 -0.794267,0.204121 20.436374,20.436374 0 0 1 0.794267,-0.204121 z m 8.950874,0.01395 a 20.436374,20.436374 0 0 1 1.393197,0.367418 20.436374,20.436374 0 0 0 -1.393197,-0.367418 z m -10.392647,0.363802 a 20.436374,20.436374 0 0 0 -0.793233,0.266131 20.436374,20.436374 0 0 1 0.793233,-0.266131 z m 11.857158,0.02532 a 20.436374,20.436374 0 0 1 1.358573,0.468158 20.436374,20.436374 0 0 0 -1.358573,-0.468188 z m -13.271025,0.457854 a 20.436374,20.436374 0 0 0 -0.791166,0.33021 20.436374,20.436374 0 0 1 0.791166,-0.33021 z m 14.65647,0.02067 -9.070764,1.233001 v 16.8491 h 22.12113 A 20.436374,20.436374 0 0 0 -35.492271,20.818556 Z m -16.022278,0.560173 a 20.436374,20.436374 0 0 0 -0.789616,0.398426 20.436374,20.436374 0 0 1 0.789616,-0.398426 z m -1.325501,0.681612 a 20.436374,20.436374 0 0 0 -0.759643,0.453721 20.436374,20.436374 0 0 1 0.759643,-0.453721 z m 6.183602,0.291973 -8.48682,1.217496 a 20.436374,20.436374 0 0 0 -8.110099,15.330847 h 16.596919 z m -7.460009,0.486791 a 20.436374,20.436374 0 0 0 -0.723987,0.506947 20.436374,20.436374 0 0 1 0.723987,-0.506947 z m 31.675585,16.088423 a 20.436374,20.436374 0 0 1 0.02274,0.911056 20.436374,20.436374 0 0 0 -0.02274,-0.911056 z m 0.02274,0.968933 a 20.436374,20.436374 0 0 1 -0.06356,0.888318 h -22.081343 v 16.739031 l 9.184452,1.324983 a 20.436374,20.436374 0 0 1 -7.474996,1.468644 20.436374,20.436374 0 0 1 -1.498616,-0.05581 20.436374,20.436374 0 0 0 1.498616,0.05633 20.436374,20.436374 0 0 0 20.435445,-20.421492 z m -21.934063,20.365133 a 20.436374,20.436374 0 0 1 -1.305347,-0.144692 20.436374,20.436374 0 0 0 1.305347,0.144692 z M -63.256468,40.784779 a 20.436374,20.436374 0 0 0 7.86877,15.228011 l 8.73125,1.219047 V 40.784779 Z m 7.976774,15.307593 a 20.436374,20.436374 0 0 0 1.083655,0.78083 20.436374,20.436374 0 0 1 -1.083655,-0.78083 z m 1.251087,0.886251 a 20.436374,20.436374 0 0 0 1.112076,0.683162 20.436374,20.436374 0 0 1 -1.112076,-0.683162 z m 1.29036,0.777213 a 20.436374,20.436374 0 0 0 1.152901,0.597379 20.436374,20.436374 0 0 1 -1.152901,-0.597379 z m 1.364258,0.689364 a 20.436374,20.436374 0 0 0 1.172538,0.501261 20.436374,20.436374 0 0 1 -1.172538,-0.501261 z m 1.373043,0.571542 a 20.436374,20.436374 0 0 0 1.22008,0.419095 20.436374,20.436374 0 0 1 -1.22008,-0.419095 z m 1.44694,0.480074 a 20.436374,20.436374 0 0 0 1.227315,0.322461 20.436374,20.436374 0 0 1 -1.227315,-0.322461 z m 1.450557,0.364834 a 20.436374,20.436374 0 0 0 1.256254,0.233579 20.436374,20.436374 0 0 1 -1.256254,-0.233579 z" />
    <path
       style="fill:#000000;fill-opacity:0;stroke:#66ff00;stroke-width:2.25037;stroke-linecap:round;stroke-linejoin:miter;stroke-miterlimit:4;stroke-dasharray:none;stroke-opacity:1"
       d="m -21.044167,-13.473899 6.206944,4.8143183 -10.648357,7.485479 -0.01676,-26.8599983 c 2.712332,-0.687326 5.321383,-0.548407 7.880677,-0.01143 v 4.305144 c 1.349023,0.310401 2.680234,0.692053 3.877926,1.607781 l 3.036676,-3.037115 c 2.1810864,1.293013 4.0127574,3.197502 5.5802044,5.564382 l -3.045026,3.044587 c 0.820943,1.292642 1.400111,2.585284 1.607781,3.877926 h 4.293277 c 0.395073,2.626893 0.218844,5.2537853 0.01187,7.8806773 h -4.316133 c -0.295542,1.102738 -0.556634,2.177914 -1.597672,3.87704799 l 3.037555,3.03755401 C -6.5624906,4.570974 -8.5066896,6.305818 -10.699148,7.693098 l -3.045466,-3.046345 c -1.144324,0.902618 -2.425845,1.462246 -3.877046,1.597673 v 4.304705 c -2.748214,0.363965 -5.436722,0.548814 -7.880677,0 V 6.243986 C -26.889345,5.9006 -28.144259,5.293027 -29.379823,4.646753 l -3.037556,3.037556 c -2.503417,-1.211163 -4.132162,-3.296988 -5.571864,-5.5718557 l 3.037556,-3.03755401 C -35.816496,-2.0180987 -36.449156,-3.2503867 -36.54936,-4.8021487 h -4.304265 c -0.65968,-2.626891 -0.721053,-5.2537823 0,-7.8806733 h 4.304265 c 0.124634,-1.373934 0.706306,-2.65646 1.597673,-3.877047 l -3.037556,-3.037996 c 1.306263,-1.778566 2.214336,-3.500249 5.571855,-5.571853 l 3.037556,3.037554"
       id="path1372"
       sodipodi:nodetypes="cccccccccccccccccccccccccccccccccc" />
    <g
       id="g22105"
       transform="translate(-2.6782084,14.994134)">
      <ellipse
         style="fill:#000000;fill-opacity:0;stroke:#5599ff;stroke-width:2.37067;stroke-linecap:round;stroke-miterlimit:4;stroke-dasharray:none"
         id="path9535"
         cx="30.262888"
         cy="-40.179527"
         rx="19.981834"
         ry="19.981833" />
      <path
         id="path9855"
         style="fill:none;stroke:#5599ff;stroke-width:2.40982;stroke-linecap:butt;stroke-linejoin:miter;stroke-miterlimit:4;stroke-dasharray:none;stroke-opacity:1"
         d="m 30.217247,-59.257463 c 0,0 -28.893729,16.040845 0,37.642404 v -0.01512 z" />
      <path
         id="path9857"
         style="fill:none;stroke:#5599ff;stroke-width:2.34058;stroke-linecap:butt;stroke-linejoin:miter;stroke-miterlimit:4;stroke-dasharray:none;stroke-opacity:1"
         d="m 30.247998,-59.30404 v 37.734663 c 26.14949,-21.6566 0,-37.734663 0,-37.734663 z"
         sodipodi:nodetypes="ccc" />
      <path
         style="fill:none;stroke:#5599ff;stroke-width:2.37067;stroke-linecap:butt;stroke-linejoin:miter;stroke-miterlimit:4;stroke-dasharray:none;stroke-opacity:1"
         d="M 13.107866,-51.298686 H 46.767572"
         id="path10510" />
      <path
         style="fill:none;stroke:#5599ff;stroke-width:2.37067;stroke-linecap:butt;stroke-linejoin:miter;stroke-miterlimit:4;stroke-dasharray:none;stroke-opacity:1"
         d="M 13.593343,-28.48129 H 46.443921"
         id="path10512" />
      <ellipse
         style="fill:#000000;fill-opacity:0;stroke:#5599ff;stroke-width:2.37067;stroke-linecap:round;stroke-miterlimit:4;stroke-dasharray:none"
         id="ellipse10612"
         cx="30.262888"
         cy="-40.179527"
         rx="19.981834"
         ry="19.981833" />
      <rect
         style="fill:#00112b;fill-opacity:1;stroke:none;stroke-width:2.20034;stroke-linecap:round;stroke-miterlimit:4;stroke-dasharray:none"
         id="rect11043"
         width="46.308002"
         height="15.747736"
         x="7.1088867"
         y="-48.053394"
         ry="0.72100127" />
      <text
         xml:space="preserve"
         style="font-style:normal;font-weight:normal;font-size:16.9333px;line-height:1.25;font-family:sans-serif;fill:#5599ff;fill-opacity:1;stroke:none;stroke-width:0.264583"
         x="9.4766006"
         y="-35.561729"
         id="text17365"><tspan
           sodipodi:role="line"
           id="tspan17363"
           style="font-size:16.9333px;fill:#5599ff;fill-opacity:1;stroke-width:0.264583"
           x="9.4766006"
           y="-35.561729">www</tspan></text>
    </g>
    <circle
       style="fill:#00adef;fill-opacity:1;stroke:none;stroke-width:0.666833;stroke-linecap:round"
       id="path28581"
       cx="-21.067308"
       cy="36.406189"
       r="20.436375" />
    <g
       id="g10491"
       transform="matrix(0.57777779,0,0,0.57777779,47.501947,-2.1908923)"
       style="fill:#00adef;fill-opacity:1">
      <path
         style="fill:#00adef;fill-opacity:1;stroke:none;stroke-width:0.264583px;stroke-linecap:butt;stroke-linejoin:miter;stroke-opacity:1"
         d="m -53.359764,40.938513 24.34477,-3.493585 v 23.566051 h -24.34477 z"
         id="path10483" />
      <path
         style="fill:#00adef;fill-opacity:1;stroke:none;stroke-width:0.264583px;stroke-linecap:butt;stroke-linejoin:miter;stroke-opacity:1"
         d="M -26.034,37.017142 V 61.010979 H 6.1607175 L 6.1429402,32.641688 Z"
         id="path10485" />
      <path
         style="fill:#00adef;fill-opacity:1;stroke:none;stroke-width:0.264583px;stroke-linecap:butt;stroke-linejoin:miter;stroke-opacity:1"
         d="M -26.034,63.693873 V 87.531479 L 6.1429404,92.172937 6.1607178,63.693873 Z"
         id="path10487" />
      <path
         style="fill:#00adef;fill-opacity:1;stroke:none;stroke-width:0.264583px;stroke-linecap:butt;stroke-linejoin:miter;stroke-opacity:1"
         d="m -29.014994,63.693873 v 23.421403 l -24.34477,-3.398983 v -20.02242 z"
         id="path10489" />
    </g>
  </g>
</svg>
